<svg width="20" height="14" viewBox="0 0 20 14" fill="none" xmlns="http://www.w3.org/2000/svg">
<path d="M19.9259 6.76278C19.7684 6.5336 15.9834 1.16602 9.99995 1.16602C4.86569 1.16602 0.29062 6.50278 0.0981168 6.73028C-0.0327056 6.88528 -0.0327056 7.11279 0.0981168 7.26861C0.29062 7.49611 4.86569 12.8329 9.99995 12.8329C15.1342 12.8329 19.7092 7.49611 19.9017 7.26861C20.0226 7.12529 20.0334 6.91779 19.9259 6.76278ZM9.99995 11.9995C5.88407 11.9995 1.97065 8.07448 0.97649 6.99947C1.96901 5.92363 5.87825 1.99939 9.99995 1.99939C14.8158 1.99939 18.2151 5.91863 19.0451 6.97697C18.0867 8.0178 14.1508 11.9995 9.99995 11.9995Z" fill="black"/>
<path d="M10.0013 3.66602C8.16299 3.66602 6.66797 5.16104 6.66797 6.99939C6.66797 8.83774 8.16299 10.3328 10.0013 10.3328C11.8397 10.3328 13.3347 8.83774 13.3347 6.99939C13.3347 5.16104 11.8397 3.66602 10.0013 3.66602ZM10.0013 9.49947C8.623 9.49947 7.5013 8.37777 7.5013 6.99943C7.5013 5.62109 8.623 4.49939 10.0013 4.49939C11.3797 4.49939 12.5014 5.62109 12.5014 6.99943C12.5014 8.37777 11.3797 9.49947 10.0013 9.49947Z" fill="black"/>
</svg>
