<svg width="24" height="24" viewBox="0 0 24 24" fill="none" xmlns="http://www.w3.org/2000/svg">
<path fill-rule="evenodd" clip-rule="evenodd" d="M3 10.6643C3 5.8728 7.00404 2 11.8473 2C16.7043 2 20.7083 5.8728 20.7083 10.6643C20.7083 13.0788 19.8302 15.3204 18.3849 17.2204C16.7904 19.3162 14.8252 21.1422 12.6131 22.5754C12.1068 22.9067 11.6499 22.9317 11.0942 22.5754C8.86952 21.1422 6.90426 19.3162 5.32344 17.2204C3.87707 15.3204 3 13.0788 3 10.6643ZM8.93149 10.9341C8.93149 12.5393 10.2413 13.8017 11.8473 13.8017C13.4544 13.8017 14.7768 12.5393 14.7768 10.9341C14.7768 9.34145 13.4544 8.01753 11.8473 8.01753C10.2413 8.01753 8.93149 9.34145 8.93149 10.9341Z" fill="#FFA132"/>
</svg>
