<svg width="449" height="69" viewBox="0 0 449 69" fill="none" xmlns="http://www.w3.org/2000/svg">
<g clip-path="url(#clip0_129_1366)">
<path fill-rule="evenodd" clip-rule="evenodd" d="M139.795 24.6688H125.393V17.8391H148.717C148.91 18.8218 149.007 19.8536 149.007 20.9346C149.007 31.2038 142.946 38.9672 126.363 38.9672C109.78 38.9672 103.719 31.2038 103.719 20.9346C103.719 10.6653 109.78 2.90186 126.363 2.90186C139.795 2.90186 146.292 8.01196 148.28 15.3823H138.679C136.982 12.385 133.2 10.4196 126.363 10.4196C115.55 10.4196 112.447 14.7435 112.447 20.9346C112.447 27.1256 115.55 31.4496 126.363 31.4496C134.8 31.4496 138.534 28.7962 139.795 24.6688ZM154.609 3.73718H177.884C189.231 3.73718 193.74 8.69985 193.74 16.5124C193.74 21.9172 191.607 25.9464 186.515 27.9118L194.225 38.132H184.769L178.127 29.2876H163.337V38.132H154.609V3.73718ZM163.337 21.819H177.884C183.169 21.819 185.012 19.8045 185.012 16.5124C185.012 13.2695 183.169 11.2549 177.884 11.2549H163.337V21.819ZM219.931 2.90186C236.514 2.90186 242.576 10.6161 242.576 20.8854C242.576 31.1548 236.514 38.9182 219.931 38.9182C203.349 38.9182 197.287 31.1548 197.287 20.8854C197.287 10.6161 203.349 2.90186 219.931 2.90186ZM219.931 30.4178C230.745 30.4178 233.848 26.4868 233.848 20.8854C233.848 15.3331 230.745 11.3532 219.931 11.3532C209.118 11.3532 206.015 15.3331 206.015 20.8854C206.015 26.4868 209.118 30.4178 219.931 30.4178ZM280.589 3.73718L290.335 27.4696L299.258 3.73718H308.325L295.62 38.132H285.535L275.692 14.203L265.849 38.132H255.764L243.059 3.73718H252.126L261.049 27.4696L270.795 3.73718H280.589ZM327.201 12.1885H311.005V3.73718H352.076V12.1885H335.929V38.132H327.201V12.1885ZM365.437 16.8563H389.053V3.73718H397.78V38.132H389.053V25.0128H365.437V38.132H356.71V3.73718H365.437V16.8563ZM424.942 20.4432L438.422 3.73718H448.216L429.306 27.6662V38.132H420.578V27.6662L401.666 3.73718H411.414L424.942 20.4432Z" fill="black"/>
<path fill-rule="evenodd" clip-rule="evenodd" d="M42.268 10.7158C51.3827 14.0584 58.4611 22.7047 58.4461 33.8917C58.4461 33.9415 58.4639 33.9723 58.5004 33.9847C58.5136 33.9897 58.5294 33.9921 58.5476 33.9921L66.9963 33.9861C67.0666 33.9861 67.1007 33.9515 67.1029 33.8805C67.2395 23.8329 62.5147 14.0932 54.7534 7.84879C51.7567 5.43783 48.5428 3.62023 45.1113 2.39621C41.5849 1.13791 37.8288 0.506577 33.8438 0.502465C15.2019 0.480165 0.151467 16.1621 0.772457 35.0007C1.23955 49.1833 10.3009 61.0007 22.8748 65.4839C26.3151 66.7109 30.0186 67.3887 33.8809 67.4157C33.9432 67.4157 33.9752 67.3833 33.9752 67.3205L33.9894 58.8379C33.9894 58.8069 33.9778 58.7769 33.9567 58.7547C33.9434 58.7407 33.9274 58.7303 33.9097 58.7243C33.8982 58.7201 33.8862 58.7175 33.8738 58.7171C30.9231 58.6083 28.188 58.1049 25.6684 57.2069C21.4776 55.7127 17.8834 53.1267 14.8854 49.4489C5.59667 38.0489 8.56898 20.8465 20.8844 13.0369C27.6821 8.72689 35.3633 8.27203 42.0004 10.6194C42.0898 10.651 42.179 10.6831 42.268 10.7158Z" fill="black"/>
<path fill-rule="evenodd" clip-rule="evenodd" d="M109.999 63.5467H115.07C114.626 65.0001 113.311 65.9343 110.34 65.9343C106.533 65.9343 105.44 64.4119 105.44 62.2319C105.44 60.0519 106.533 58.5295 110.34 58.5295C112.748 58.5295 114.08 59.2215 114.677 60.2769H118.058C117.358 57.6817 115.07 55.8823 110.34 55.8823C104.501 55.8823 102.367 58.6159 102.367 62.2319C102.367 65.8479 104.501 68.5815 110.34 68.5815C116.18 68.5815 118.314 65.8479 118.314 62.2319C118.314 61.8513 118.28 61.4879 118.211 61.1419H109.999V63.5467ZM128.482 56.1765H120.286V68.2873H123.36V65.1731H128.567L130.906 68.2873H134.235L131.521 64.6887C133.314 63.9967 134.065 62.5779 134.065 60.6747C134.065 57.9239 132.477 56.1765 128.482 56.1765ZM128.482 62.5433H123.36V58.8235H128.482C130.343 58.8235 130.992 59.5329 130.992 60.6747C130.992 61.8339 130.343 62.5433 128.482 62.5433ZM151.26 62.2147C151.26 58.5987 149.126 55.8823 143.287 55.8823C137.448 55.8823 135.314 58.5987 135.314 62.2147C135.314 65.8305 137.448 68.5641 143.287 68.5641C149.126 68.5641 151.26 65.8305 151.26 62.2147ZM148.187 62.2147C148.187 64.1869 147.095 65.5711 143.287 65.5711C139.48 65.5711 138.387 64.1869 138.387 62.2147C138.387 60.2595 139.48 58.8581 143.287 58.8581C147.095 58.8581 148.187 60.2595 148.187 62.2147ZM168.077 64.5329L164.645 56.1765H161.197L157.765 64.5329L154.623 56.1765H151.431L155.904 68.2873H159.455L162.921 59.8617L166.387 68.2873H169.938L174.412 56.1765H171.219L168.077 64.5329ZM175.355 59.1523H181.058V68.2873H184.131V59.1523H189.817V56.1765H175.355V59.1523ZM202.837 60.7959H194.522V56.1765H191.448V68.2873H194.522V63.6679H202.837V68.2873H205.91V56.1765H202.837V60.7959ZM222.473 56.1765H214.892V68.2873H222.473C227.458 68.2873 229.694 65.8479 229.694 62.2319C229.694 58.6159 227.458 56.1765 222.473 56.1765ZM222.473 65.2943H217.965V59.1523H222.473C225.597 59.1523 226.621 60.3979 226.621 62.2319C226.621 64.0485 225.597 65.2943 222.473 65.2943ZM231.682 68.2873H234.755V56.1765H231.682V68.2873ZM244.387 63.5467H249.457C249.013 65.0001 247.698 65.9343 244.728 65.9343C240.921 65.9343 239.827 64.4119 239.827 62.2319C239.827 60.0519 240.921 58.5295 244.728 58.5295C247.136 58.5295 248.468 59.2215 249.064 60.2769H252.445C251.745 57.6817 249.457 55.8823 244.728 55.8823C238.89 55.8823 236.754 58.6159 236.754 62.2319C236.754 65.8479 238.89 68.5815 244.728 68.5815C250.568 68.5815 252.702 65.8479 252.702 62.2319C252.702 61.8513 252.668 61.4879 252.599 61.1419H244.387V63.5467ZM254.673 68.2873H257.746V56.1765H254.673V68.2873ZM259.406 59.1523H265.108V68.2873H268.181V59.1523H273.868V56.1765H259.406V59.1523ZM274.951 68.2873L276.127 66.0901H283.539L284.717 68.2873H288.029L281.711 56.1765H277.937L271.637 68.2873H274.951ZM279.834 59.2041L282.121 63.4603H277.544L279.834 59.2041ZM292.444 56.1765H289.371V68.2873H301.783V65.4153H292.444V56.1765ZM318.569 62.8029L312.475 56.1765H309.913V68.2873H312.986V60.6575L318.569 66.7821L324.153 60.6575V68.2873H327.226V56.1765H324.664L318.569 62.8029ZM331.906 68.2873L333.084 66.0901H340.495L341.673 68.2873H344.985L338.668 56.1765H334.894L328.594 68.2873H331.906ZM336.791 59.2041L339.078 63.4603H334.501L336.791 59.2041ZM354.524 56.1765H346.327V68.2873H349.4V65.1731H354.609L356.948 68.2873H360.277L357.562 64.6887C359.356 63.9967 360.106 62.5779 360.106 60.6747C360.106 57.9239 358.519 56.1765 354.524 56.1765ZM354.524 62.5433H349.4V58.8235H354.524C356.383 58.8235 357.033 59.5329 357.033 60.6747C357.033 61.8339 356.383 62.5433 354.524 62.5433ZM373.507 56.1765L369.376 60.7959H365.107V56.1765H362.034V68.2873H365.107V63.6679H369.376L373.507 68.2873H377.298L371.936 62.2319L377.298 56.1765H373.507ZM391.578 56.1765H378.824V68.2873H391.578V65.6575H381.897V63.4429H391.118V61.0381H381.897V58.8235H391.578V56.1765ZM392.711 59.1523H398.413V68.2873H401.486V59.1523H407.172V56.1765H392.711V59.1523ZM408.802 68.2873H411.875V56.1765H408.802V68.2873ZM425.776 63.9793L416.95 56.1765H414.388V68.2873H417.463V60.4671L426.289 68.2873H428.849V56.1765H425.776V63.9793ZM438.465 63.5467H443.535C443.093 65.0001 441.777 65.9343 438.806 65.9343C434.999 65.9343 433.906 64.4119 433.906 62.2319C433.906 60.0519 434.999 58.5295 438.806 58.5295C441.214 58.5295 442.547 59.2215 443.143 60.2769H446.523C445.825 57.6817 443.535 55.8823 438.806 55.8823C432.968 55.8823 430.833 58.6159 430.833 62.2319C430.833 65.8479 432.968 68.5815 438.806 68.5815C444.647 68.5815 446.78 65.8479 446.78 62.2319C446.78 61.8513 446.746 61.4879 446.677 61.1419H438.465V63.5467Z" fill="black"/>
<path fill-rule="evenodd" clip-rule="evenodd" d="M61.9263 68.1834C61.9391 68.1926 61.9537 68.1984 61.9691 68.2006C61.9766 68.2024 61.9843 68.2034 61.992 68.2034H79.858C79.8736 68.2034 79.889 68.1996 79.903 68.1924C79.9115 68.1878 79.9194 68.182 79.9263 68.175L79.9318 68.1692L79.9375 68.1614C79.9464 68.1486 79.9521 68.1336 79.9539 68.118C79.9559 68.1022 79.9539 68.0864 79.9484 68.0716L68.7927 37.8046C68.7858 37.786 68.7734 37.7702 68.7572 37.759C68.7448 37.7502 68.7306 37.7448 68.7158 37.7426C68.7081 37.7408 68.7002 37.7398 68.6921 37.7398H51.0631C51.0477 37.7396 51.0323 37.743 51.0183 37.7502C51.0045 37.7572 50.9925 37.7676 50.9834 37.7802C50.9743 37.793 50.9684 37.8078 50.9662 37.8234C50.964 37.8388 50.9656 37.8548 50.9707 37.8696L61.8913 68.1366C61.8979 68.1554 61.9101 68.1718 61.9263 68.1834ZM29.6852 37.8406C29.6747 37.8408 29.6642 37.8432 29.6548 37.8482C29.6455 37.8532 29.6374 37.8604 29.6313 37.869C29.6252 37.8778 29.6212 37.8878 29.6198 37.8984C29.6182 37.909 29.6194 37.9198 29.623 37.9298L40.5394 68.207C40.5442 68.22 40.5525 68.2312 40.5637 68.2392C40.5675 68.242 40.5714 68.2442 40.5755 68.246C40.5817 68.2488 40.588 68.2504 40.5945 68.2512C40.6002 68.2528 40.6061 68.2536 40.6121 68.2536H58.5463C58.5519 68.2534 58.5572 68.2526 58.5625 68.2512C58.5675 68.2498 58.5724 68.2478 58.5769 68.2454C58.5862 68.2402 58.5941 68.2328 58.6 68.2238C58.6059 68.2148 58.6097 68.2046 58.6109 68.194C58.6121 68.1832 58.6105 68.1724 58.6067 68.1624L47.4489 37.8852C47.4442 37.8726 47.4355 37.8618 47.4244 37.8542C47.4156 37.848 47.4053 37.8442 47.3946 37.843L47.3885 37.8416C47.3846 37.841 47.3804 37.8406 47.3765 37.8406H29.6852Z" fill="black"/>
</g>
<defs>
<clipPath id="clip0_129_1366">
<rect width="449" height="69" fill="white"/>
</clipPath>
</defs>
</svg>
