<svg width="168" height="93" viewBox="0 0 168 93" fill="none" xmlns="http://www.w3.org/2000/svg">
<path d="M0.0176138 34.3152C-0.124074 30.4765 0.584364 26.6379 2.31295 22.9737C4.32492 18.2336 7.35703 14.3949 11.5226 11.4578C14.243 9.53846 17.2752 8.05535 20.5623 7.32833C24.3029 6.45591 27.9017 6.31051 31.784 7.03752C39.4068 8.52064 45.1593 12.9409 49.3249 19.4259C51.6202 23.1191 52.9237 27.1032 53.3488 31.5235C53.4905 34.0244 53.3488 36.5253 53.2071 38.9099C53.0654 40.2477 52.7821 41.4109 52.357 42.7486C50.7701 48.2158 47.6246 52.7814 43.1473 56.3002C40.1152 58.8011 36.828 60.4296 33.0875 61.3021C29.3469 62.1745 25.4647 62.1745 21.7241 61.5929C16.3967 60.7205 11.806 58.1904 7.92378 54.061C5.77013 51.8508 4.04154 49.3499 2.59633 46.5291C0.896077 42.7195 0.0176138 38.5901 0.0176138 34.3152ZM9.93574 34.4606C9.93574 35.1876 9.93574 35.9437 10.0774 36.5253C10.3608 40.5094 11.9477 44.0572 14.6681 46.9944C18.692 50.9784 23.4244 52.7523 29.0352 52.1417C31.3306 51.8508 33.4842 51.1238 35.4962 49.7861C39.9452 46.6745 42.9773 42.5741 43.544 36.9615C44.1108 31.349 42.9773 26.3471 39.2367 22.0722C36.7997 19.2805 33.7676 17.3612 30.1971 16.7505C26.7399 16.1689 23.1694 16.3143 19.8539 17.9428C16.5384 19.5713 14.1014 21.9268 12.3728 25.0094C10.5025 27.9756 9.79405 31.0582 9.93574 34.4606Z" fill="black"/>
<path d="M157.659 24.0788C155.931 22.3049 153.919 20.4728 152.048 19.2805C147.741 16.7796 143.15 16.0235 138.39 17.0704C133.204 18.2627 129.492 21.1998 126.885 25.9109C125.723 27.9756 125.014 30.1857 125.014 32.5413C125.014 34.7514 125.014 37.1069 125.581 39.3171C126.431 42.3996 128.018 44.9296 130.313 47.1398C135.471 51.9963 141.507 53.334 148.279 51.56C152.445 50.5422 155.165 47.576 156.894 43.4465H143.66C142.357 43.4465 142.357 43.4465 142.357 42.1088V35.333C142.357 34.3152 142.357 34.3152 143.377 34.3152H166.954C167.974 34.3152 167.974 34.3152 167.974 35.333C168.116 38.8809 167.691 42.2542 166.387 45.5113C164.942 49.3499 162.788 52.7233 159.926 55.5441C157.064 58.3358 153.749 60.2552 149.866 61.1567C145.984 62.1745 141.96 62.349 138.078 61.5929C135.074 61.1567 132.184 60.2552 129.605 58.9465C126.148 57.1726 123.144 54.6717 120.849 51.56C118.553 48.4775 116.967 45.0751 115.975 41.2364C114.955 37.1069 114.813 32.9775 115.691 28.7026C116.995 22.0722 120.424 16.7505 125.468 12.621C128.472 10.1201 131.929 8.49156 135.669 7.76454C140.402 6.74672 145.021 6.89212 149.753 7.90994C155.364 9.10225 159.955 12.0394 163.837 16.1689C164.404 16.7505 164.404 16.8959 163.837 17.652C161.966 19.4259 160.125 21.2289 158.368 23.2645C157.659 24.0788 157.943 23.788 157.659 24.0788Z" fill="black"/>
<path d="M69.6995 22.0722C69.6995 22.7992 69.8412 23.5553 69.8412 24.4278C69.9829 25.4456 69.9829 26.6379 70.1246 27.6848C70.2663 28.4118 69.9829 28.5572 69.4162 28.7026C67.971 28.848 66.5541 29.1388 65.2506 29.2842C64.0887 29.4296 63.0969 29.575 61.9351 29.7205C61.7934 29.7205 61.6517 29.8659 61.3683 30.0113C64.3721 30.7383 67.2625 31.349 70.2663 31.9306C68.1126 40.6257 66.1007 49.1754 64.0887 57.8705C63.0686 57.5797 62.2184 57.4343 61.3683 57.2889C59.3564 56.8527 57.2027 56.2711 55.1907 55.6604C54.4823 55.515 54.3406 55.2242 54.4823 54.4681C55.5025 50.6295 56.3526 46.9362 57.2027 43.1266C57.7695 40.6257 58.3645 38.1248 58.9313 35.5947C59.2147 34.1116 59.6397 32.6576 59.9514 31.3199C60.0931 30.3021 60.3765 29.2552 60.2348 28.3827C59.9514 24.8349 59.5264 21.4615 59.073 17.9137C58.6479 14.2205 58.3645 10.7017 57.9111 7.00844C57.7695 5.99062 57.9111 5.81614 58.903 5.81614C60.9149 5.52533 62.7852 5.37993 64.6555 5.08912C65.3639 5.08912 65.8173 5.08912 66.3841 5.52533C72.1649 10.4109 77.8891 15.151 83.7833 19.8621C84.4917 20.4437 85.2285 21.0544 86.2203 21.7814C86.362 21.4906 86.362 21.1998 86.6454 21.0544C90.9527 15.5872 95.26 10.0038 99.5673 4.53659C100.417 3.51876 101.154 2.47186 102.004 1.45403C102.288 1.16323 102.713 0.87242 102.996 0.727017C105.15 0.43621 107.303 0.290807 109.457 0C110.024 0 110.166 0 110.307 0.581614C110.591 4.27486 110.874 7.64822 111.299 11.0507C111.582 14.4531 112.007 17.6811 112.461 21.0835C112.603 22.4212 112.603 22.4212 111.299 22.5666C109.145 22.8574 106.992 23.1482 104.98 23.6135H104.696C102.259 23.9043 102.543 23.9043 102.401 21.8396C102.259 20.8218 102.259 19.7749 102.118 18.4371C101.693 18.8734 101.409 19.1642 101.126 19.455C99.8223 20.9381 98.6888 22.5375 97.527 24.166C97.2436 24.6023 96.8185 24.7477 96.3651 24.7477C91.9162 25.3293 87.4672 26.0854 83.1599 26.8124C81.4313 27.1032 79.8444 27.2486 78.1441 27.5394C77.4357 27.6848 76.8406 27.5394 76.2738 27.1032C74.2619 25.3293 72.2499 23.7008 70.238 22.1013C69.9829 21.9268 69.8412 21.9268 69.6995 22.0722Z" fill="black"/>
<path d="M105.065 68.3687C103.62 68.0779 102.486 67.787 101.324 67.4962C99.7373 67.06 98.1504 66.6238 96.4502 66.1585C95.7417 66.0131 95.7417 65.7223 95.8834 65.1116C96.3085 63.1923 96.7335 61.273 97.3286 59.3537C98.4905 54.4972 99.7657 49.6116 100.927 44.7552C101.353 43.1266 101.636 41.4981 102.089 39.8987C102.373 38.8809 102.373 38.8809 103.393 39.0263C105.972 39.4625 108.409 40.0732 111.016 40.6548C112.177 40.9456 112.319 40.9456 111.866 42.1379C111.157 45.075 110.421 48.0413 109.712 50.9784C108.55 55.5441 107.558 60.1098 106.397 64.7045C106.255 65.5769 105.972 66.4784 105.688 67.3508C105.49 67.9325 105.206 68.2233 105.065 68.3687Z" fill="black"/>
<path d="M96.1384 38.0084C92.1145 40.5094 88.0906 43.0103 83.925 45.6857C81.6296 41.7017 79.1926 37.7176 76.7273 33.4428C83.3299 34.9259 89.7908 36.2345 96.1384 37.7176C95.9968 37.7176 95.9968 37.863 96.1384 38.0084Z" fill="black"/>
<path d="M42.9773 89.1613H40.8236V87.8236C39.6618 89.4522 38.1032 89.5976 37.5081 89.5976C34.9294 89.5976 32.6341 87.5328 32.6341 84.2758C32.6341 81.0188 34.7877 78.8086 37.5081 78.8086C38.9534 78.8086 40.0869 79.3902 40.6819 80.5826V79.0994H42.8356L42.9773 89.1613ZM34.9294 84.1595C34.9294 85.9334 36.0913 87.0966 37.7915 87.0966C39.5201 87.0966 40.6536 85.7589 40.6536 83.985C40.6536 82.2111 39.4918 80.9024 37.7915 80.9024C36.0913 80.9024 34.9294 82.2402 34.9294 84.1595Z" fill="black"/>
<path d="M61.68 87.5328C61.68 91.2261 59.1013 93 56.3526 93C54.0572 93 52.0453 91.6623 51.4785 89.3068H54.1989C54.624 90.6445 56.0692 90.7899 56.3526 90.7899C57.9395 90.7899 59.2147 89.4522 59.2147 87.9981V87.7073C58.9313 88.1435 58.0528 89.3358 56.3526 89.3358C53.6322 89.3358 51.3368 86.9803 51.3368 84.0141C51.3368 80.9315 53.6322 78.7214 56.3526 78.7214C57.061 78.7214 58.5062 78.8668 59.3564 80.4953V79.1576H61.51L61.68 87.5328ZM53.7739 83.8687C53.7739 85.4972 54.7657 86.9512 56.636 86.9512C58.3645 86.9512 59.498 85.6135 59.498 84.0141C59.498 82.2402 58.3362 80.9315 56.636 80.9315C54.7657 80.9024 53.7739 82.3856 53.7739 83.8687Z" fill="black"/>
<path d="M72.7317 85.0319C73.015 86.2242 74.0352 87.0966 75.3104 87.0966C76.0188 87.0966 76.8973 86.8058 77.464 86.0788H80.1844C78.8809 89.3358 75.8771 89.3358 75.3104 89.3358C71.7115 89.3358 70.1246 86.3987 70.1246 84.0432C70.1246 81.6876 71.8532 78.576 75.4521 78.576C78.4558 78.576 80.4678 80.9315 80.4678 84.0432V85.061H72.7317V85.0319ZM78.0308 82.9672C77.7474 81.6295 76.5856 80.9024 75.4521 80.9024C74.1485 80.9024 73.1567 81.7749 72.7317 82.9672H78.0308Z" fill="black"/>
<path d="M88.9691 78.9831H91.1227V79.8555C91.4061 79.4193 92.2845 78.5178 93.8431 78.5178C96.1384 78.5178 97.7254 80.1463 97.7254 83.0835V88.9869H95.43V83.6651C95.43 81.455 94.4382 80.8734 93.418 80.8734C91.5478 80.8734 91.4061 82.7927 91.4061 83.6651V89.1323H89.1107L88.9691 78.9831Z" fill="black"/>
<path d="M116.711 85.788C116.003 87.8527 114.274 89.4812 111.837 89.4812C108.097 89.4812 106.368 86.5441 106.368 84.0141C106.368 81.6585 108.097 78.7214 111.696 78.7214C114.133 78.7214 116.003 80.2045 116.711 82.4146H113.991C113.566 81.5422 112.688 81.0769 111.696 81.0769C109.825 81.0769 108.692 82.56 108.692 84.1595C108.692 85.9334 109.854 87.242 111.696 87.242C112.121 87.242 113.424 87.0966 113.991 85.9043L116.711 85.788Z" fill="black"/>
<path d="M134.224 78.9831L128.472 92.5638H125.893L127.763 88.2889L124.164 79.1576H126.885L129.18 85.6426L131.475 79.1576C131.645 78.9831 134.224 78.9831 134.224 78.9831Z" fill="black"/>
</svg>
